{"title":"How To Train Your Dragon TS XViD - IMAGiNE","uid":5473403,"size":753726006,"categoryP":"video","categoryS":"movies","magnet":"?xt=urn:btih:003bc1f6be0473fb85a56d4c6bacb7ea301eaf58&amp;dn=How+To+Train+Your+Dragon+TS+XViD+-+IMAGiNE&amp;tr=udp%3A%2F%2Ftracker.openbittorrent.com%3A80&amp;tr=udp%3A%2F%2Fopen.demonii.com%3A1337&amp;tr=udp%3A%2F%2Ftracker.coppersurfer.tk%3A6969&amp;tr=udp%3A%2F%2Fexodus.desync.com%3A6969","seeders":1,"leechers":1,"uploader":"IwannaFan2","files":3,"time":1270004399,"description":"Filename:\nHow To Train Your Dragon TS XViD - IMAGiNE\n &lt;a href=&quot;\nhttp://www.imdb.com/title/tt0892769/&quot; rel=&quot;nofollow&quot; target=&quot;_NEW&quot;&gt;\nhttp://www.imdb.com/title/tt0892769/&lt;/a&gt;\n\nDETAILS:\n\nVideo\nID                               : 0\nFormat                           : MPEG-4 Visual\nFormat profile                   : Advanced Simple@L5\nFormat settings, BVOP            : Yes\nFormat settings, QPel            : No\nFormat settings, GMC             : No warppoints\nFormat settings, Matrix          : Default (MPEG)\nMuxing mode                      : Packed bitstream\nCodec ID                         : XVID\nCodec ID/Hint                    : XviD\nDuration                         : 1h 28mn\nBit rate                         : 979 Kbps\nWidth                            : 704 pixels\nHeight                           : 304 pixels\nDisplay aspect ratio             : 2.35:1\nFrame rate                       : 25.000 fps\nResolution                       : 8 bits\nColorimetry                      : 4:2:0\nScan type                        : Progressive\nBits/(Pixel*Frame)               : 0.183\nStream size                      : 622 MiB (88%)\nWriting library                  : XviD 1.2.1 (UTC 2008-12-04)\n\nAudio\nID                               : 1\nFormat                           : MPEG Audio\nFormat version                   : Version 1\nFormat profile                   : Layer 3\nMode                             : Joint stereo\nFormat_Settings_ModeExtension    : MS Stereo\nCodec ID                         : 55\nCodec ID/Hint                    : MP3\nDuration                         : 1h 28mn\nBit rate mode                    : Constant\nBit rate                         : 128 Kbps\nChannel(s)                       : 2 channels\nSampling rate                    : 44.1 KHz\nVideo delay                      : 60ms\nStream size                      : 81.3 MiB (11%)\nAlignment                        : Split accross interleaves\nInterleave, duration             : 40 ms (1.00 video frame)\nInterleave, preload duration     : 500 ms\n\n\n\nNOTES:\n\nIMAGiNE bringing you another release.....How To Train Your Dragon.\nHere we have taken the cam from ELEKTRI4KA tanx, and added our line audio to it.\nWhat can we say about this one ... well its not the best looking cam but turned\nout okay after some tweaking of the video here and there. Ran a denoiser on it, tweaked the colors to try and look natural, amoung a few other things.\n\nEnjoy.\n","torrent":{"xt":"urn:btih:003bc1f6be0473fb85a56d4c6bacb7ea301eaf58","amp;dn":"How+To+Train+Your+Dragon+TS+XViD+-+IMAGiNE","amp;tr":["udp%3A%2F%2Ftracker.openbittorrent.com%3A80","udp%3A%2F%2Fopen.demonii.com%3A1337","udp%3A%2F%2Ftracker.coppersurfer.tk%3A6969","udp%3A%2F%2Fexodus.desync.com%3A6969"],"infoHash":"003bc1f6be0473fb85a56d4c6bacb7ea301eaf58","infoHashBuffer":{"type":"Buffer","data":[0,59,193,246,190,4,115,251,133,165,109,76,107,172,183,234,48,30,175,88]},"announce":[],"urlList":[]}}